HIERARCHY
ROOT Hips
{
	OFFSET	0.00	0.00	0.00
	CHANNELS 6 Xposition Yposition Zposition Zrotation Xrotation Yrotation
	JOINT LeftHip
	{
		OFFSET	 3.430000	 0.000000	 0.000000
		CHANNELS 3 Zrotation Xrotation Yrotation
		JOINT LeftKnee
		{
			OFFSET	 0.000000	-18.469999	 0.000000
			CHANNELS 3 Zrotation Xrotation Yrotation
			JOINT LeftAnkle
			{
				OFFSET	 0.000000	-17.950001	 0.000000
				CHANNELS 3 Zrotation Xrotation Yrotation
				End Site 
				{
					OFFSET	 0.000000	-3.119996	 0.000000
				}
			}
		}
	}
	JOINT RightHip
	{
		OFFSET	-3.430000	 0.000000	 0.000000
		CHANNELS 3 Zrotation Xrotation Yrotation
		JOINT RightKnee
		{
			OFFSET	 0.000000	-18.809999	 0.000000
			CHANNELS 3 Zrotation Xrotation Yrotation
			JOINT RightAnkle
			{
				OFFSET	 0.000000	-17.570000	 0.000000
				CHANNELS 3 Zrotation Xrotation Yrotation
				End Site 
				{
					OFFSET	 0.000000	-3.250000	 0.000000
				}
			}
		}
	}
	JOINT Chest
	{
		OFFSET	 0.000000	 4.570000	 0.000000
		CHANNELS 3 Zrotation Xrotation Yrotation
		JOINT LeftCollar
		{
			OFFSET	 1.060000	 15.330000	 1.760000
			CHANNELS 3 Zrotation Xrotation Yrotation
			JOINT LeftShoulder
			{
				OFFSET	 5.810000	 0.000000	 0.000000
				CHANNELS 3 Zrotation Xrotation Yrotation
				JOINT LeftElbow
				{
					OFFSET	 0.000000	-12.080000	 0.000000
					CHANNELS 3 Zrotation Xrotation Yrotation
					JOINT LeftWrist
					{
						OFFSET	 0.000000	-9.820000	 0.000000
						CHANNELS 3 Zrotation Xrotation Yrotation
						End Site 
						{
							OFFSET	 0.000000	-7.369996	 0.000000
						}
					}
				}
			}
		}
		JOINT RightCollar
		{
			OFFSET	-1.060000	 15.330000	 1.760000
			CHANNELS 3 Zrotation Xrotation Yrotation
			JOINT RightShoulder
			{
				OFFSET	-6.060000	 0.000000	 0.000000
				CHANNELS 3 Zrotation Xrotation Yrotation
				JOINT RightElbow
				{
					OFFSET	 0.000000	-11.900000	 0.000000
					CHANNELS 3 Zrotation Xrotation Yrotation
					JOINT RightWrist
					{
						OFFSET	 0.000000	-9.520000	 0.000000
						CHANNELS 3 Zrotation Xrotation Yrotation
						End Site 
						{
							OFFSET	 0.000000	-7.140012	 0.000000
						}
					}
				}
			}
		}
		JOINT Neck
		{
			OFFSET	 0.000000	 17.620001	 0.000000
			CHANNELS 3 Zrotation Xrotation Yrotation
			JOINT Head
			{
				OFFSET	 0.000000	 5.190000	 0.000000
				CHANNELS 3 Zrotation Xrotation Yrotation
				End Site 
				{
					OFFSET	 0.000000	 4.140008	 0.000000
				}
			}
		}
	}
}

MOTION
Frames: 28
Frame Time: 0.033333
4.583 15.9765 -50.614 4.79257 7.51951 121.953 12.933 6.07032 8.70328 -7.82645 7.34721 5.54698 -17.2531 49.5643 -1.90262 -6.3965 8.14573 -28.2641 2.32904 10.1053 2.77498 15.8809 41.7747 4.84615 -1.2825 -4.04399 -8.0604 0 0 0 -174.379 -12.9794 149.011 -27.737 -35.8482 -20.9247 96.5381 -57.7801 35.7109 0 0 0 -168.019 -10.1665 -107.065 7.84666 -25.1556 5.25976 -109.728 -53.2678 -13.6174 0 0 0 -6.45318 -29.5762 -13.6449 
5.0627 17.6138 -50.3704 5.30935 7.20611 122.631 14.3383 8.30239 6.79545 -7.6287 7.46032 5.63213 -16.2825 49.5721 -2.89111 -5.11516 10.6423 -27.4702 2.32894 10.2105 3.13835 15.5782 42.8278 5.81714 -0.82382 -4.70386 -8.73425 0 0 0 -174.458 -10.6257 151.49 -29.6511 -36.922 -22.3385 99.8411 -57.1709 36.3586 0 0 0 -167.395 -7.4692 -108.834 8.70301 -26.7584 6.31542 -112.554 -54.9065 -13.4802 0 0 0 -7.13476 -31.4651 -13.8245 
5.5473 19.1457 -50.1067 5.9081 7.09856 123.004 15.7873 10.0575 4.81222 -7.37407 7.79115 6.08145 -15.2851 48.4757 -3.13179 -4.56292 12.9858 -26.3825 2.48316 9.75421 3.60732 15.567 43.8439 6.27575 -0.33038 -5.13105 -9.14877 0 0 0 -174.251 -8.74577 154.359 -30.8183 -36.7521 -23.3402 99.7596 -56.6422 35.097 0 0 0 -167.369 -4.98359 -110.378 8.11948 -26.8835 7.03267 -111.074 -56.5747 -8.39202 0 0 0 -7.94962 -33.7561 -14.0135 
5.9215 20.3436 -49.9259 6.29714 7.13712 123.334 17.1627 11.0312 3.58207 -7.49099 7.57768 6.22508 -14.5803 46.7523 -1.72296 -4.94948 14.3009 -25.2116 2.46899 9.44591 3.57534 16.7882 42.4886 4.29537 -0.0545707 -5.29517 -9.54632 0 0 0 -172.156 -8.7403 154.095 -26.9236 -33.3576 -20.4687 79.9997 -56.6642 19.6604 0 0 0 -167.785 -4.12537 -110.986 6.77314 -23.5873 6.13161 -95.123 -49.2608 0.914188 0 0 0 -8.99864 -36.1097 -14.3691 
6.0747 20.8132 -49.7552 6.47224 7.03057 123.436 18.6214 11.1551 4.59683 -7.88249 7.78246 6.50063 -11.851 45.7076 -3.33052 -6.27488 14.1575 -25.5021 2.69205 9.26699 3.37338 16.2756 41.9413 4.91754 0.205787 -5.02654 -9.80729 0 0 0 -169.672 -9.58298 151.533 -21.7822 -28.9932 -17.0722 56.2705 -51.5565 3.59908 0 0 0 -168.517 -5.87512 -110.472 5.61995 -19.312 4.63026 -79.6841 -40.0942 7.27795 0 0 0 -10.3151 -39.0394 -15.2127 
6.1098 20.8408 -49.6422 6.71842 7.04164 123.605 19.2666 10.8591 4.49566 -7.80674 7.70804 6.42076 -10.8448 44.392 -2.64064 -7.92889 13.6869 -25.2442 2.87925 9.28045 3.21219 16.0531 41.059 4.66103 0.383258 -4.43729 -10.017 0 0 0 -166.905 -11.7731 148.998 -17.1825 -24.1813 -13.9894 33.4588 -39.5011 -3.55997 0 0 0 -169.75 -9.49101 -110.506 4.61703 -14.3497 3.18176 -59.5066 -30.6912 12.6748 0 0 0 -11.3797 -41.6057 -15.7444 
5.9968 20.3611 -49.5593 6.98864 6.91351 123.797 20.0093 9.6694 4.87208 -7.82668 8.19625 6.46602 -9.84571 41.7359 -2.11272 -10.1906 12.1097 -25.0701 3.08359 10.0468 2.98105 15.5419 39.5205 4.84278 1.10734 -2.91487 -10.1243 0 0 0 -165.041 -14.2908 147.893 -13.3342 -19.4268 -10.2354 11.2586 -28.0458 -7.8758 0 0 0 -171.147 -13.3154 -110.232 3.17835 -8.91691 1.93246 -40.1515 -20.6947 17.3069 0 0 0 -12.7746 -44.1396 -16.3564 
5.7532 19.54 -49.5141 6.96553 6.58577 124.185 20.3362 7.92383 5.80855 -7.84804 8.81271 6.35311 -9.46838 38.8962 -1.7041 -12.7727 9.7332 -24.9712 3.35984 11.2923 2.70704 15.0745 37.6566 5.0394 1.84938 -1.28952 -10.3168 0 0 0 -163.704 -16.5369 145.794 -10.114 -14.641 -6.83764 -7.93619 -15.7521 -12.161 0 0 0 -172.261 -17.2526 -107.592 1.96037 -3.47838 0.202273 -21.7754 -11.8679 21.6575 0 0 0 -13.8653 -46.1242 -16.6832 
5.3791 18.1512 -49.4613 6.40088 5.94162 124.738 20.3632 5.17403 7.00257 -7.89551 9.64737 6.24679 -10.3319 35.5304 -1.23902 -15.3951 6.09291 -25.002 3.60343 12.9881 2.47095 14.2398 35.4465 5.86961 2.65416 0.0876221 -10.4501 0 0 0 -163.655 -17.9496 141.946 -7.41926 -10.5248 -3.98566 -25.3864 -5.49778 -16.837 0 0 0 -172.868 -19.3965 -104.084 1.23909 1.52713 -1.56766 -4.70748 -2.93592 25.7485 0 0 0 -14.1669 -46.6702 -16.4009 
4.8768 16.3155 -49.4337 5.76313 5.15194 125.384 19.8762 2.32793 8.29219 -8.16043 10.5508 5.9237 -12.2724 32.8582 -1.63289 -18.059 1.53047 -24.9271 3.8499 15.4436 2.30497 13.0051 33.0854 6.82412 3.60211 1.88955 -10.4345 0 0 0 -164.215 -18.5834 138.706 -5.10074 -7.87223 -1.50105 -39.6153 4.3068 -21.4831 0 0 0 -172.54 -20.0827 -101.093 1.98795 4.54263 -2.81525 11.6029 5.29509 27.7071 0 0 0 -13.512 -45.3767 -15.1846 
4.2741 14.088 -49.3885 5.16351 4.32108 126.015 18.1132 -0.360551 9.15248 -7.96393 11.5843 5.53019 -14.8494 30.0377 -1.90041 -20.2453 -3.28683 -24.6309 4.16254 18.2852 2.28851 11.4859 31.118 7.93926 4.77046 4.15378 -10.2946 0 0 0 -166.478 -18.4096 138.705 -5.40626 -8.74694 -1.8226 -46.8269 11.4969 -18.9821 0 0 0 -172.031 -20.2775 -100.255 2.47319 3.13341 -2.70715 20.575 5.85663 27.3843 0 0 0 -11.5463 -41.3189 -12.9529 
3.6087 11.4764 -49.3282 4.59897 3.3466 126.526 16.4665 -3.46572 10.2875 -7.78394 13.429 5.10318 -15.9835 26.6628 -2.86038 -22.0541 -8.38913 -24.4328 4.55506 21.5327 2.16034 9.23745 28.5335 9.16556 6.27398 6.85611 -10.0636 0 0 0 -170.095 -18.3862 138.404 -6.494 -11.9194 -2.41224 -51.5479 16.1619 -15.6358 0 0 0 -171.246 -19.7685 -100.182 2.32417 0.734252 -2.21258 27.3856 5.51423 27.8267 0 0 0 -9.81922 -36.7067 -11.0316 
2.795 8.2394 -49.175 4.04706 2.22624 127.153 13.5138 -5.237 10.0536 -7.22041 15.7275 5.15239 -15.834 18.7785 -2.9639 -23.1837 -13.2665 -23.8539 4.791 25.8597 1.49181 8.069 21.6374 9.37913 8.0224 10.0686 -9.75395 0 0 0 -175.622 -17.8205 138.196 -9.48963 -16.726 -4.09315 -47.9773 14.8234 -15.2084 0 0 0 -168.564 -17.5931 -100.591 2.83369 -5.39188 -0.520503 27.6704 5.11735 27.855 0 0 0 -8.63516 -31.9471 -9.9485 
2.0542 5.1908 -48.9942 3.56927 1.34494 127.676 9.39655 -4.99769 8.6654 -6.14141 16.9638 5.27378 -15.4901 11.2455 -2.22973 -23.9296 -17.7729 -22.7357 5.36429 30.7994 0.743109 7.48702 14.563 8.55647 9.27149 12.617 -9.3969 0 0 0 178.428 -17.3918 136.271 -13.3325 -22.2539 -7.6784 -41.2246 14.5201 -14.8754 0 0 0 -165.153 -15.1309 -100.096 4.63702 -12.5316 1.72972 27.1782 4.24397 27.5021 0 0 0 -7.27368 -26.9886 -9.12553 
1.223 2.1321 -48.7054 2.96957 1.03075 127.867 5.58128 -5.46386 6.43586 -5.72287 18.7534 5.17397 -14.4152 4.60156 -0.234656 -25.2822 -21.7299 -21.8033 7.45428 34.915 -0.233902 5.83863 8.65541 7.52246 9.81466 15.7318 -8.82683 0 0 0 170.897 -17.8306 134.218 -20.1507 -28.2237 -13.518 -32.8172 11.7942 -14.3617 0 0 0 -158.977 -13.3418 -100.948 7.99373 -21.9979 6.14598 27.2735 3.41617 27.1034 0 0 0 -5.98672 -23.0543 -8.65404 
0.3943 -0.5499 -48.3765 2.31583 0.753715 127.868 2.12329 -5.20467 4.31743 -5.59538 19.9768 5.69489 -11.5416 -1.42857 0.785344 -26.9774 -25.7405 -22.1304 8.36866 39.7575 -0.806897 4.57929 3.27177 7.6259 9.88739 19.4273 -8.09078 0 0 0 160.801 -22.4178 131.431 -29.5308 -34.5058 -21.1482 -22.5604 8.62959 -15.0827 0 0 0 -149.104 -13.9339 -100.476 13.2679 -30.8447 11.0996 28.5763 2.15368 25.4967 0 0 0 -4.86087 -20.7157 -8.21012 
-0.3691 -2.7873 -47.9922 1.76053 0.492183 127.875 -0.66406 -4.98091 1.9577 -5.53363 20.8338 6.56077 -7.27368 -6.9273 1.85505 -28.2061 -28.9062 -22.2041 9.72906 43.8236 -1.93677 3.52997 -1.89885 7.49484 10.0688 23.331 -7.67357 0 0 0 148.136 -28.9436 126.729 -40.0255 -38.7333 -28.6797 -13.3242 5.11415 -18.5373 0 0 0 -137.013 -17.1809 -99.4539 18.9789 -38.7294 15.8244 29.0816 0.843799 25.195 0 0 0 -4.31154 -20.1803 -8.11918 
-1.0622 -4.5276 -47.5704 1.05297 0.0809198 128.014 -2.42652 -5.38 0.0157695 -5.69278 21.9782 6.90726 -2.77304 -12.1133 3.26978 -29.702 -31.8579 -23.0518 11.2929 47.6036 -3.07605 2.89897 -7.16459 6.98521 10.3247 26.7514 -7.48546 0 0 0 132.845 -36.1247 119.611 -48.1263 -40.7715 -34.7707 -6.2771 1.70254 -22.1724 0 0 0 -123.468 -21.9403 -97.2793 24.1398 -43.9617 19.9864 29.4141 -0.331233 25.5061 0 0 0 -4.50063 -21.9242 -8.59835 
-1.7503 -5.7154 -47.1184 -0.0151522 -0.507768 128.366 -4.19836 -5.83431 -2.22865 -5.76674 22.0948 7.53534 0.715819 -16.3645 4.99149 -31.6375 -34.8212 -24.5231 12.6694 50.7678 -4.17636 3.15959 -11.719 6.31321 10.4422 29.6145 -7.44651 0 0 0 115.993 -42.9419 110.09 -51.5255 -39.859 -37.2356 -0.504175 -2.85352 -25.5987 0 0 0 -108.585 -27.3113 -92.813 28.3677 -46.4802 23.2545 28.6322 -1.08297 25.9037 0 0 0 -4.89651 -24.3559 -9.20744 
-2.2927 -5.9967 -46.7241 -1.41024 -1.0991 128.561 -4.94767 -8.23694 -3.15862 -6.05762 21.8526 7.61422 1.52865 -15.8533 6.04212 -34.7766 -37.9892 -27.2978 13.8024 52.513 -4.4112 3.53544 -11.6404 6.09103 10.4245 31.7843 -7.5579 0 0 0 97.5526 -48.3621 96.742 -49.3784 -37.5005 -35.8934 2.0216 -5.26706 -29.2097 0 0 0 -92.5306 -32.4715 -84.3568 27.8781 -45.4263 22.6635 27.3812 -2.20034 26.3089 0 0 0 -5.26413 -26.9925 -9.4513 
-2.8351 -6.1071 -46.3625 -2.95221 -1.87714 128.702 -5.02419 -11.822 -3.05956 -6.96676 22.0293 7.61024 1.77685 -14.3917 6.01481 -38.3588 -40.2541 -31.1142 14.2076 52.8974 -4.11235 3.90081 -10.7961 6.56062 10.2648 33.7733 -7.87109 0 0 0 75.8167 -50.1161 78.5265 -44.6139 -34.2337 -32.5837 3.25069 -6.11545 -32.6974 0 0 0 -72.8443 -35.3077 -70.9342 25.0694 -42.8987 20.1177 26.0782 -3.22146 26.9205 0 0 0 -5.49309 -29.6301 -9.39194 
-3.2319 -5.7204 -46.1114 -4.24652 -2.8979 128.867 -4.57637 -14.6205 -1.84662 -7.29527 21.3829 7.96153 1.73727 -13.1856 4.47768 -40.9041 -42.177 -34.9223 12.7188 53.1199 -3.12475 5.50184 -10.8872 7.52979 10.5796 34.8177 -8.53512 0 0 0 54.7834 -47.2657 58.347 -36.2736 -29.6317 -26.4601 1.24395 -4.40832 -36.017 0 0 0 -54.6794 -31.8653 -54.7151 19.6475 -37.4122 14.8353 23.8149 -3.63175 28.0431 0 0 0 -5.70627 -31.4866 -8.93153 
-3.498 -5.2232 -45.9481 -5.02408 -3.79403 129.198 -4.12216 -17.3171 -1.14836 -7.26802 21.0261 7.6455 1.62353 -11.9474 4.0557 -41.6402 -43.1327 -36.6835 12.6402 51.9321 -2.67189 6.26218 -11.1377 6.99029 11.3482 35.1557 -9.54089 0 0 0 41.7462 -43.0629 44.405 -28.2159 -22.8017 -20.2374 -0.808024 -0.809341 -38.478 0 0 0 -42.2629 -26.9233 -43.4728 14.866 -31.3515 10.4481 20.4323 -3.96875 30.3563 0 0 0 -6.00788 -32.6003 -8.66738 
-3.7743 -4.4623 -45.8778 -5.68152 -4.43728 129.039 -3.43244 -19.9893 -0.0770412 -7.04849 20.7462 7.1074 1.31412 -11.2426 4.06197 -41.8466 -43.5245 -38.0914 12.0559 49.9121 -1.75414 7.43154 -11.9116 6.77832 11.6007 34.7553 -10.307 0 0 0 31.5551 -36.9605 32.0701 -21.7096 -17.1129 -15.4029 -2.46561 2.11117 -39.4498 0 0 0 -32.8994 -22.0283 -36.6764 11.4295 -24.537 7.39605 17.318 -4.83144 30.8837 0 0 0 -5.85692 -33.1952 -7.96965 
-4.0731 -3.5885 -45.9029 -6.12341 -4.77249 128.323 -2.78581 -21.9966 0.884167 -7.07392 19.7837 7.32267 1.07575 -10.7122 4.2445 -41.2687 -43.5545 -38.5965 11.6626 47.2762 -1.46737 8.38695 -12.8972 6.70654 11.3612 34.2806 -10.8276 0 0 0 24.9423 -29.5432 22.998 -17.7056 -12.271 -11.7559 -3.79163 4.70046 -39.4505 0 0 0 -25.6851 -17.1638 -32.4391 9.22109 -18.9217 5.14121 14.4598 -6.39302 30.5244 0 0 0 -5.41671 -33.7239 -6.84337 
-4.3292 -2.6342 -45.9908 -6.27329 -4.7667 127.044 -1.64458 -23.7379 2.46255 -7.16274 18.8731 7.29993 0.766197 -10.6484 4.71955 -40.3993 -43.338 -38.9662 11.4056 45.0166 -1.3465 9.06249 -14.1497 6.20311 10.8701 33.6912 -11.0813 0 0 0 20.7029 -21.3029 16.488 -15.34 -9.97266 -9.39257 -5.73804 9.16818 -39.9508 0 0 0 -20.0564 -12.2862 -29.5741 7.55882 -15.2189 3.37157 12.4371 -8.1647 29.5493 0 0 0 -4.84363 -34.1439 -5.3148 
-4.5829 -1.7001 -46.149 -5.96419 -4.66261 125.325 0.00710809 -24.8278 4.65562 -7.3229 17.6856 7.33683 0.438437 -10.5588 5.29053 -38.8141 -42.3177 -39.1146 10.8949 42.9851 -0.881592 9.46792 -15.1952 5.5412 10.6016 33.1433 -11.2237 0 0 0 17.4742 -13.0446 12.0923 -14.1074 -8.64064 -8.12898 -7.65066 12.3617 -40.6353 0 0 0 -16.2636 -8.06085 -28.1989 6.5353 -12.5499 2.0499 10.9062 -9.80225 28.9124 0 0 0 -4.50767 -34.5519 -3.66065 
-4.8013 -0.7709 -46.3449 -5.25948 -4.4087 123.209 2.18143 -25.5344 7.30371 -7.40689 16.4742 7.34436 0.0782579 -10.7566 5.89748 -36.5675 -40.2553 -38.9224 10.356 41.0029 -0.505915 9.88347 -15.9397 5.3896 10.5142 32.6545 -11.0939 0 0 0 14.7871 -5.69504 8.8241 -13.7657 -7.85794 -7.50043 -9.50335 14.2735 -41.3649 0 0 0 -14.3809 -4.96943 -28.2862 6.09114 -10.794 1.29379 9.63126 -11.5 28.4265 0 0 0 -4.31292 -34.9918 -2.01287 
